# xmcd CD database file
#
# Track frame offsets:
#	150
#	16024
#	32390
#	49355
#	68697
#	84312
#	102570
#	115358
#	132952
#	149909
#	166220
#	182533
#	200254
#	230645
#	261675
#	290223
#	300619
#
# Disc length: 4785 seconds
#
# Revision: 0
# Processed by: cddbd v1.5.2PL0 Copyright (c) Steve Scherf et al.
# Submitted via: CDex 1.70beta2
#
DISCID=fb12af11
DTITLE=Ozark Henry - The Soft Machine
DYEAR=2006
DGENRE=New Age
TTITLE0=These Days
TTITLE1=Christine
TTITLE2=We Were Never Alone
TTITLE3=Splinter
TTITLE4=Play Politics
TTITLE5=Weekenders
TTITLE6=Echo As Metaphor
TTITLE7=Cincinnati
TTITLE8=Morpheus
TTITLE9=Sun Dance
TTITLE10=Le Temps Qui Reste
TTITLE11=Jailbid
TTITLE12=Hotel de Flandre 01
TTITLE13=Hotel de Flandre 02
TTITLE14=Hotel de Flandre 03
TTITLE15=Tu manques
TTITLE16=Elektra
EXTD=YEAR: 2006
EXTT0=
EXTT1=
EXTT2=
EXTT3=
EXTT4=
EXTT5=
EXTT6=
EXTT7=
EXTT8=
EXTT9=
EXTT10=
EXTT11=
EXTT12=
EXTT13=
EXTT14=
EXTT15=
EXTT16=
PLAYORDER=
